<svg version="1" xmlns="http://www.w3.org/2000/svg" width="346.667" height="346.667" viewBox="0 0 260.000000 260.000000"><path d="M115.1 6C61 12.8 16.7 54.8 7.4 108c-1.9 11-1.9 33.1 0 44 8.3 47.3 44 86 90.8 98.5 69.5 18.6 140.5-26.1 154.4-97.2 2.4-11.9 2.4-34.7 0-46.6-9.8-50-49.4-89.8-98.8-99.2-10.4-1.9-29-2.7-38.7-1.5zm26.8 32.4c.9 1 1.1 21.9.9 80.2l-.3 78.9-2.8 6c-5.6 12.1-13.9 17.5-26.8 17.5-8.9 0-15.8-2.9-21-8.8-5.5-6.2-7.4-11.6-7.4-21.2 0-15 5.9-23.6 23.8-34.6 12.9-8 12.7-8 12.7-.2v6.5l-6.2 3.9c-17 10.4-22.6 21.6-16.5 33.4 3.1 6.2 6.5 8.3 14 8.8 5.3.3 6.7 0 9.7-2 1.9-1.3 4.6-4.4 6-6.8 2.5-4.5 2.5-4.8 2.8-32l.3-27.5h-11.3c-10.3 0-11.8-.2-16.8-2.7-6.6-3.3-13.2-9.3-16.2-15.1-2.2-4-2.3-5.5-2.6-30.1-.3-23.3-.2-26 1.4-27.7 2.2-2.5 5.9-2.4 8.4.1 1.9 1.9 2 3.3 2 25 0 17.3.3 23.9 1.4 26.3 1.7 4.3 8.5 10.1 13.5 11.5 4.8 1.5 12.8 1.5 17 .1l3.1-1.1V84.1c0-47.6-.1-47.1 6.4-47.1 1.9 0 3.9.6 4.5 1.4zm63.7 76.5c1.1 2.1.5 4.6-4.6 19.2-3.2 9.2-6.3 17.6-6.9 18.7-2.1 3.9-8.2 3.2-10.2-1.1-.8-1.8-.3-4.2 2.5-12.1 2-5.4 3.6-10.2 3.6-10.7 0-.7-11.1 3.9-27.2 11.5-4.2 2-7.9 3.6-8.2 3.6-.3 0-.6-2.9-.6-6.3v-6.4l8.3-3.9c4.5-2.1 14.3-6.4 21.7-9.6 15.1-6.4 19.6-7 21.6-2.9z"/></svg>