<svg xmlns="http://www.w3.org/2000/svg" width="294" height="180.789" viewBox="0 0 294 180.789">
    <defs>
        <style>
            .a{fill:#fff;}.b{fill:#00a1ed;}
        </style>
    </defs>
    <g transform="translate(6.422 18.682)">
        <g transform="translate(53.788 44.871)">
            <path class="a" d="M-443.757,2436.33a411.221,411.221,0,0,0-93.962,33.479c-.7.347-1.406.709-2.109,1.062l3.365,4.206c.7-.352,1.407-.715,2.109-1.061a411.246,411.246,0,0,1,93.962-33.48c32.553-7.124,74.346-9.113,110.976-5.616l3.964-3.425C-363.737,2426.971-409.011,2428.725-443.757,2436.33Z" transform="translate(539.827 -2424.282)"/>
            <path class="a" d="M-144.477,2428.281c-.01-.127-.028-.253-.049-.379a11.1,11.1,0,0,0-5.494-7.479,4.638,4.638,0,0,1,1.015.848,4.925,4.925,0,0,1-.506,6.935l-21.958,18.972a4.892,4.892,0,0,1-1.809.99,4.908,4.908,0,0,1-1.4.2,4.927,4.927,0,0,1-3.722-1.7,4.87,4.87,0,0,1-1.1-2.355c.107,3.651,3.361,6.938,6.434,7.93a4.939,4.939,0,0,0,1.752.329,4.909,4.909,0,0,0,1.4-.2,4.891,4.891,0,0,0,1.809-.99l21.958-18.973a4.872,4.872,0,0,0,.8-.908l.014.009a4.5,4.5,0,0,0,.858-2.372c.014-.157.008-.314.007-.472C-144.47,2428.54-144.467,2428.412-144.477,2428.281Z" transform="translate(378.257 -2420.423)"/>
        </g>
        <g transform="translate(0 0)">
            <path class="a" d="M-614.18,2527.928c-5.683,3.428-11.043,6.907-14.206,11.765-4.579,7.04-3.521,17.076,2.358,22.377.087.078.186.144.275.22a18.435,18.435,0,0,1,.731-18.391c3.163-4.859,8.523-8.337,14.206-11.765,1.372-.827,2.748-1.629,4.121-2.438v-11.378l-3.364-4.206v11.378C-611.433,2526.3-612.808,2527.1-614.18,2527.928Z" transform="translate(634.601 -2417.562)"/>
            <path class="a" d="M-566.387,2339.076h0Z" transform="translate(605.524 -2339.076)"/>
            <path class="a" d="M-633.927,2385.23V2420.2a14.66,14.66,0,0,0,5.137,11.157,14.08,14.08,0,0,1-1.773-6.952v-34.969a7.074,7.074,0,0,0-.326-2.213,12,12,0,0,0-5.409-6.262,5.89,5.89,0,0,0-1.041-.407A4.921,4.921,0,0,1-633.927,2385.23Z" transform="translate(637.339 -2357.674)"/>
            <path class="a" d="M-602.508,2495.193v-3.646a33.3,33.3,0,0,1-10.48,1.658,31.294,31.294,0,0,1-21.056-7.594c-.7-.6-1.349-1.221-1.966-1.854a28.181,28.181,0,0,0,5.33,6.06,31.294,31.294,0,0,0,21.056,7.593,33.817,33.817,0,0,0,7.106-.748V2495.2Z" transform="translate(636.743 -2403.95)"/>
            <path class="a" d="M-588.923,2469.306V2348.393a6.457,6.457,0,0,0-.334-2.214,12,12,0,0,0-5.41-6.262,5.9,5.9,0,0,0-1.014-.4,4.92,4.92,0,0,1,3.392,4.669V2465.1c.147,3.27.066,14.529-6.94,23.485a23.232,23.232,0,0,1-16.365,8.491c-.774.068-1.549.1-2.316.1a24.436,24.436,0,0,1-16.446-6.092c-.263-.237-.518-.482-.77-.731a23.655,23.655,0,0,0,4.134,4.937,24.433,24.433,0,0,0,16.446,6.092c.767,0,1.542-.031,2.316-.1a23.234,23.234,0,0,0,16.366-8.491C-588.857,2483.834-588.777,2472.575-588.923,2469.306Z" transform="translate(636.346 -2339.274)"/>
        </g>
    </g>
    <path class="b" d="M-598.5,2464.835V2343.908a4.92,4.92,0,0,0-4.914-4.914,4.92,4.92,0,0,0-4.914,4.914l0,72.04a22.444,22.444,0,0,1-10.48,2.481,21.445,21.445,0,0,1-14.637-5.207c-3.841-3.315-5.71-7.14-5.71-11.7v-34.972a4.92,4.92,0,0,0-4.914-4.914,4.92,4.92,0,0,0-4.914,4.914v34.972c0,7.477,3.067,13.915,9.115,19.138a31.3,31.3,0,0,0,21.059,7.594,33.3,33.3,0,0,0,10.48-1.658v3.647l-.009.009.012,34.81c.076,1.738.2,10.734-4.862,17.2a13.4,13.4,0,0,1-9.472,4.754,15.276,15.276,0,0,1-11.333-3.5c-5.88-5.3-6.938-15.34-2.359-22.38,3.164-4.86,8.525-8.338,14.208-11.767,1.372-.827,2.748-1.629,4.122-2.439v-11.379c-3.329,1.909-6.367,3.692-9.2,5.4-6.7,4.045-13.074,8.222-17.369,14.822-7.1,10.919-5.3,26.64,4.014,35.042a24.441,24.441,0,0,0,16.448,6.093c.767,0,1.541-.031,2.316-.1a23.234,23.234,0,0,0,16.368-8.491C-598.435,2479.366-598.355,2468.105-598.5,2464.835Z" transform="translate(648.981 -2320.357)"/>
    <path class="b" d="M-310.545,2417.376a4.888,4.888,0,0,0-1.234-1l-.021-.013a4.806,4.806,0,0,0-.627-.307c-.131-.056-.263-.106-.4-.15-.115-.035-.231-.063-.348-.09s-.253-.08-.387-.1c-41.314-6.376-93.21-4.981-132.216,3.554a419.858,419.858,0,0,0-94.048,33.244v10.606c.7-.353,1.407-.715,2.109-1.062a411.312,411.312,0,0,1,93.973-33.484c34.75-7.6,80.03-9.359,118.319-4.836l-14.013,12.106a4.925,4.925,0,0,0-.506,6.936,4.927,4.927,0,0,0,3.722,1.7,4.9,4.9,0,0,0,1.4-.2,4.894,4.894,0,0,0,1.809-.99l21.961-18.975A4.925,4.925,0,0,0-310.545,2417.376Z" transform="translate(600.036 -2352.981)"/>
    <g transform="translate(59.415)">
        <path class="a" d="M-495.323,2382.565a27.662,27.662,0,0,1-6.7,18.372,23.729,23.729,0,0,1-16.275,8.869,19.383,19.383,0,0,1-16.273-5.716q-6.7-6.651-6.7-17.075a27.659,27.659,0,0,1,6.7-18.37,23.739,23.739,0,0,1,16.273-8.873,19.4,19.4,0,0,1,16.274,5.72Q-495.321,2372.143-495.323,2382.565Zm-8.8.853a14.2,14.2,0,0,0-4.143-10.526,11.96,11.96,0,0,0-10.035-3.541,14.634,14.634,0,0,0-10.03,5.485,17.057,17.057,0,0,0-4.144,11.325,14.192,14.192,0,0,0,4.143,10.526,11.945,11.945,0,0,0,10.033,3.54,14.616,14.616,0,0,0,10.033-5.482A17.058,17.058,0,0,0-504.119,2383.418Z" transform="translate(541.268 -2329.624)"/>
        <path class="a" d="M-406.547,2365.473a5.192,5.192,0,0,1-1.351,3.5,5.545,5.545,0,0,1-3.315,1.9q-2.045.36-3.924-1.715l-21.277-23.473v28.227a5.193,5.193,0,0,1-1.279,3.48,5.383,5.383,0,0,1-3.273,1.848,3.86,3.86,0,0,1-3.271-.694,3.68,3.68,0,0,1-1.279-3.025l0-41.363a5.189,5.189,0,0,1,1.354-3.5,5.59,5.59,0,0,1,3.326-1.9,4.282,4.282,0,0,1,3.937,1.661l21.248,23.47v-24.978a5.187,5.187,0,0,1,1.281-3.475,5.4,5.4,0,0,1,3.27-1.848,3.868,3.868,0,0,1,3.271.7,3.682,3.682,0,0,1,1.28,3.024Z" transform="translate(498.333 -2313.408)"/>
        <path class="a" d="M-318.264,2331.816a26.981,26.981,0,0,1-6.924,17.941,28.045,28.045,0,0,1-16.826,9.838l-12.8,2.249a3.785,3.785,0,0,1-3.2-.782,3.605,3.605,0,0,1-1.349-2.941l0-38.325a5.165,5.165,0,0,1,1.349-3.419,5.354,5.354,0,0,1,3.2-1.906l12.8-2.084q9.9-1.738,16.826,3.927T-318.264,2331.816Zm-9.1,1.6a11.681,11.681,0,0,0-4.282-9.549,12.261,12.261,0,0,0-10.37-2.434l-8.248,1.45,0,29.118,8.248-1.45a17.275,17.275,0,0,0,10.367-6.078A16.63,16.63,0,0,0-327.365,2333.414Z" transform="translate(459.703 -2308.244)"/>
        <path class="a" d="M-157.887,2352.07a4.085,4.085,0,0,1-1.408,3.123,4.182,4.182,0,0,1-3.257,1.157,4.789,4.789,0,0,1-3.186-1.647l-14.579-15.7v11.161a4.081,4.081,0,0,1-1.28,3.158,4.165,4.165,0,0,1-3.271,1.03,4.792,4.792,0,0,1-3.271-1.51,4.712,4.712,0,0,1-1.28-3.347l0-39.034a4,4,0,0,1,1.365-3.064,4.076,4.076,0,0,1,3.186-1.126l10.667.785a15.937,15.937,0,0,1,10.779,5.2,15.644,15.644,0,0,1,4.439,11.04,13.8,13.8,0,0,1-3.1,8.945,13.432,13.432,0,0,1-8.072,4.815l10.854,11.755A4.706,4.706,0,0,1-157.887,2352.07Zm-10.2-29.445a6.293,6.293,0,0,0-1.779-4.44,6.407,6.407,0,0,0-4.338-2.088l-6.116-.449,0,12.156,6.115.449a5.524,5.524,0,0,0,4.337-1.447A5.43,5.43,0,0,0-168.086,2322.625Z" transform="translate(383.501 -2305.677)"/>
        <g transform="translate(142.972)">
            <path class="a" d="M-237.782,2348.9a4.584,4.584,0,0,1-1.488,3.278,4.529,4.529,0,0,1-3.188,1.335,3.754,3.754,0,0,1-3.61-2.647l-4.088-9.726h-18.859l-4.941,10.2a4.087,4.087,0,0,1-3.775,2.647,4.216,4.216,0,0,1-3.092-1.335,4.259,4.259,0,0,1-1.248-3.278,5.544,5.544,0,0,1,.592-2.263l18.873-38.429q1.707-3.469,4.315-3.469,2.63,0,4.09,3.469l15.962,37.956A5.288,5.288,0,0,1-237.782,2348.9Zm-16.331-17.17-4.721-11.219-5.538,11.219Z" transform="translate(282.074 -2305.208)"/>
        </g>
    </g>
    <g transform="translate(184.545 82.947)">
        <path class="a" d="M-313.276,2480.115a1.061,1.061,0,0,1-1.143-1.1l.005-18.419a1.341,1.341,0,0,1,1.145-1.32l6.482-.625c3.373-.326,5.485,1.558,5.483,4.854a4.86,4.86,0,0,1-2.553,4.6c2.259.266,3.636,2.644,3.636,4.73a6.457,6.457,0,0,1-5.926,6.591Zm6.486-12.814c1.789-.173,2.7-1.743,2.7-3.437,0-1.815-1.173-2.76-2.991-2.584l-4.576.441,0,6.049Zm-4.87,2.949,0,7.078,5.4-.521a3.679,3.679,0,0,0,3.228-3.729,3.184,3.184,0,0,0-3.314-3.34Z" transform="translate(314.42 -2456.942)"/>
        <path class="a" d="M-278.474,2468.548l.04,6.1,8.705-.416a1.241,1.241,0,0,1,1.338,1.227,1.365,1.365,0,0,1-1.322,1.325l-10.1.482a1.373,1.373,0,0,1-1.43-1.341l-.114-17.4a1.518,1.518,0,0,1,1.411-1.476l9.733-.465a1.235,1.235,0,0,1,1.338,1.2,1.369,1.369,0,0,1-1.321,1.354l-8.342.4.042,6.456,7.194-.344a1.241,1.241,0,0,1,1.338,1.227,1.365,1.365,0,0,1-1.322,1.325Z" transform="translate(299.592 -2456.032)"/>
        <path class="a" d="M-253.27,2458.344a1.281,1.281,0,0,1-1.305-1.3,1.321,1.321,0,0,1,1.311-1.3l13.016-.163a1.275,1.275,0,0,1,1.305,1.268,1.327,1.327,0,0,1-1.311,1.331l-5.111.064-.035,16.723a1.4,1.4,0,0,1-1.4,1.421,1.35,1.35,0,0,1-1.364-1.386l.035-16.724Z" transform="translate(287.586 -2455.583)"/>
        <path class="a" d="M-211.98,2474.747a1.359,1.359,0,0,1-.815,1.8,1.376,1.376,0,0,1-1.768-.845l-1.6-4.5-8.7-.2-1.828,4.428a1.377,1.377,0,0,1-1.8.764,1.36,1.36,0,0,1-.733-1.834l7.068-17.419a1.932,1.932,0,0,1,1.936-1.3l.149,0a1.885,1.885,0,0,1,1.816,1.382Zm-5.076-6.074-3.177-9.7-3.612,9.542Z" transform="translate(276.272 -2455.609)"/>
    </g>
</svg>
